<svg width="45" height="40" viewBox="0 0 45 40" fill="none" xmlns="http://www.w3.org/2000/svg">
<path d="M44.3773 6.70178H0V39.9999H44.3773V6.70178Z" fill="#92D9DD"/>
<path d="M22.1887 31.8781C27.6882 31.8781 32.1465 27.4198 32.1465 21.9202C32.1465 16.4207 27.6882 11.9624 22.1887 11.9624C16.6891 11.9624 12.2308 16.4207 12.2308 21.9202C12.2308 27.4198 16.6891 31.8781 22.1887 31.8781Z" fill="white"/>
<path d="M43.5114 0.857056H0.865906V5.83598H43.5114V0.857056Z" fill="white"/>
<path d="M44.3773 6.71072H0V0H44.3773V6.71072ZM1.7318 4.97892H42.6455V1.7318H1.7318V4.97892Z" fill="#1D5D61"/>
<path d="M4.43338 2.44165H2.81415V4.17345H4.43338V2.44165Z" fill="#1D5D61"/>
<path d="M7.23458 2.44165H5.61536V4.17345H7.23458V2.44165Z" fill="#1D5D61"/>
<path d="M10.0357 2.44165H8.4165V4.17345H10.0357V2.44165Z" fill="#1D5D61"/>
<path d="M17.1145 26.938L10.9276 22.0326L17.1145 17.1273L18.1882 18.4825L13.7115 22.0326L18.1882 25.5828L17.1145 26.938Z" fill="#1D5D61"/>
<path d="M27.2628 26.938L26.1891 25.5828L30.6658 22.0326L26.1891 18.4868L27.2628 17.1273L33.454 22.0326L27.2628 26.938Z" fill="#1D5D61"/>
<path d="M23.4733 15.2013L19.6279 28.4031L21.2906 28.8874L25.136 15.6856L23.4733 15.2013Z" fill="#1D5D61"/>
</svg>
