<svg width="67" height="40" viewBox="0 0 67 40" fill="none" xmlns="http://www.w3.org/2000/svg">
<path d="M8.57447 34.2618V2.89011C8.57368 2.66834 8.61669 2.4486 8.70101 2.24349C8.78533 2.03837 8.90931 1.85191 9.06585 1.69482C9.22238 1.53773 9.4084 1.41309 9.61322 1.32804C9.81803 1.24299 10.0376 1.19922 10.2594 1.19922H56.3575C56.8059 1.19922 57.236 1.37737 57.5531 1.69447C57.8702 2.01158 58.0484 2.44165 58.0484 2.89011V34.2618" fill="white"/>
<path d="M59.2476 34.2618H56.8492V2.89011C56.8492 2.82554 56.8364 2.76162 56.8117 2.70196C56.787 2.64231 56.7508 2.58811 56.7052 2.54246C56.6595 2.4968 56.6053 2.46057 56.5456 2.43587C56.486 2.41116 56.422 2.39844 56.3575 2.39844H10.2594C10.13 2.40002 10.0065 2.45252 9.91558 2.54456C9.82466 2.6366 9.77368 2.76074 9.77369 2.89011V34.2618H7.37524V2.89011C7.37524 2.12464 7.67891 1.39043 8.21962 0.848601C8.76033 0.30677 9.4939 0.00158811 10.2594 0H56.3575C56.737 0 57.1128 0.0747443 57.4635 0.219987C57.8141 0.365229 58.1327 0.578124 58.4011 0.846497C58.6695 1.11487 58.8824 1.43348 59.0276 1.78412C59.1729 2.13477 59.2476 2.51058 59.2476 2.89011V34.2618Z" fill="#3C3C3C"/>
<path d="M54.4567 4.79688H12.1721V30.6221H54.4567V4.79688Z" fill="#39BAC2"/>
<path d="M1.19922 34.1061V37.1401C1.19922 37.1401 3.41777 38.8011 5.04871 38.8011H61.5681C63.199 38.8011 65.4236 37.1401 65.4236 37.1401V34.1061H1.19922Z" fill="white"/>
<path d="M61.5681 40.0003H5.04872C3.07599 40.0003 0.743516 38.2974 0.485684 38.1055L0 37.7458V32.9069H66.6228V37.7458L66.1371 38.1055C65.8793 38.2974 63.5408 40.0003 61.5681 40.0003ZM2.39844 36.5106C3.18363 37.0779 4.09169 37.4518 5.04872 37.6019H61.5681C62.3116 37.6019 63.4688 37.0022 64.2243 36.5106V35.3113H2.39844V36.5106Z" fill="#3C3C3C"/>
<path d="M44.2872 19.4635V16.3815L41.547 16.1537C41.3621 15.162 40.9963 14.2128 40.4677 13.3535L42.2666 11.1889L40.09 9.01232L37.9913 10.8112C37.1588 10.2474 36.2301 9.84099 35.2511 9.61193L35.0172 6.78775H31.9293L31.7074 9.52198C30.7162 9.71172 29.7674 10.0794 28.9072 10.6073L26.7426 8.77246L24.566 10.9551L26.3649 13.0537C25.8011 13.8862 25.3947 14.8149 25.1656 15.7939L22.3415 16.0278V19.0498L25.0757 19.2777C25.2627 20.2697 25.6306 21.2189 26.161 22.0778L24.3262 24.2424L26.5088 26.419L28.6074 24.6202C29.4399 25.1839 30.3687 25.5903 31.3476 25.8194L31.5815 28.6436H34.6635L34.8913 25.9094C35.8824 25.7189 36.831 25.3512 37.6915 24.8241L39.8561 26.6589L42.0327 24.4763L40.2339 22.3776C40.7951 21.5438 41.2014 20.6155 41.4331 19.6374L44.2872 19.4635Z" fill="white"/>
<path d="M37.8594 17.7247C37.8606 18.6251 37.5947 19.5056 37.0954 20.2548C36.596 21.004 35.8856 21.5883 35.0541 21.9336C34.2226 22.279 33.3074 22.37 32.4242 22.195C31.541 22.0201 30.7295 21.5872 30.0924 20.9509C29.4553 20.3147 29.0213 19.5038 28.8452 18.6208C28.6691 17.7378 28.7589 16.8225 29.1032 15.9905C29.4475 15.1586 30.0308 14.4474 30.7793 13.9471C31.5279 13.4468 32.408 13.1797 33.3084 13.1797C34.5143 13.1797 35.671 13.6583 36.5243 14.5105C37.3776 15.3627 37.8578 16.5187 37.8594 17.7247Z" fill="#DEC411"/>
<path d="M33.3084 23.4752C32.1711 23.4752 31.0593 23.1379 30.1137 22.5061C29.168 21.8742 28.431 20.9762 27.9958 19.9254C27.5606 18.8747 27.4467 17.7185 27.6686 16.603C27.8905 15.4876 28.4381 14.463 29.2423 13.6588C30.0465 12.8546 31.0711 12.307 32.1865 12.0851C33.302 11.8632 34.4582 11.9771 35.5089 12.4123C36.5596 12.8475 37.4577 13.5846 38.0896 14.5302C38.7214 15.4758 39.0587 16.5876 39.0587 17.7249C39.0571 19.2494 38.4507 20.7111 37.3727 21.7892C36.2946 22.8672 34.8329 23.4736 33.3084 23.4752ZM33.3084 14.3791C32.6452 14.3791 31.9969 14.5758 31.4456 14.9443C30.8942 15.3129 30.4646 15.8367 30.2111 16.4496C29.9576 17.0624 29.8916 17.7366 30.0214 18.387C30.1512 19.0373 30.471 19.6346 30.9404 20.1031C31.4098 20.5716 32.0076 20.8904 32.6581 21.019C33.3087 21.1477 33.9828 21.0804 34.5952 20.8258C35.2076 20.5712 35.7306 20.1407 36.0982 19.5887C36.4658 19.0367 36.6614 18.388 36.6602 17.7249C36.6602 17.285 36.5735 16.8494 36.4049 16.4431C36.2364 16.0368 35.9894 15.6677 35.6781 15.3569C35.3668 15.0461 34.9972 14.7998 34.5906 14.632C34.184 14.4642 33.7482 14.3783 33.3084 14.3791Z" fill="#3C3C3C"/>
</svg>
