<svg width="41" height="40" viewBox="0 0 41 40" fill="none" xmlns="http://www.w3.org/2000/svg">
<path d="M23.4761 40H16.927L16.4474 37.7753C15.8192 37.6527 15.1977 37.498 14.5854 37.3118L13.0055 39.065L7.33098 35.7844L8.03627 33.604C7.56775 33.1839 7.12243 32.7385 6.70227 32.27L4.40504 33.0116L1.13249 27.3411L2.97431 25.6766C2.81262 25.1342 2.67812 24.584 2.57129 24.0282L0 23.4761V16.935L2.70831 16.3547C2.81713 15.9154 2.95416 15.4599 3.11134 14.9844L0.930983 13.0136L4.20756 7.34308L7.16978 8.29824C7.4398 8.01612 7.70983 7.75013 7.97582 7.49219L6.97633 4.40504L12.6509 1.12846L14.8877 3.63526C15.1899 3.55063 15.4841 3.47003 15.7783 3.40151L16.5078 0H23.0569L23.7864 3.40151C24.0524 3.46197 24.3144 3.53048 24.5723 3.60302L26.9904 0.939038L32.665 4.21561L31.601 7.50428C31.8025 7.68967 32.004 7.87909 32.2056 8.0806L35.5909 6.98841L38.8675 12.6589L36.4494 14.8594C36.5582 15.1778 36.659 15.5002 36.7476 15.8227L40.0282 16.528V23.0771L37.1023 23.7058C37.0257 24.1411 36.933 24.5562 36.8323 24.9552L39.0932 26.9985L35.7884 32.6529L33.2413 31.8469C32.9068 32.2499 32.5522 32.6247 32.1773 32.9995L33.0156 35.595L27.3451 38.8715L25.733 37.0821C25.1638 37.2888 24.5839 37.465 23.996 37.6101L23.4761 40ZM18.2368 38.3879H22.1824L22.6378 36.2479L23.1496 36.1391C24.0089 35.9518 24.8514 35.6944 25.6685 35.3693L26.1884 35.1597L27.6715 36.804L31.0892 34.8332L30.3396 32.5119L30.7103 32.1652C31.2914 31.6154 31.8303 31.0226 32.3224 30.392L32.6731 29.9526L35.0348 30.7184L37.0096 27.3007L34.9945 25.463L35.1355 24.9753C35.3293 24.2911 35.4788 23.5951 35.5829 22.8917L35.6675 22.3395L38.4 21.7552V17.8096L35.4136 17.1688L35.2927 16.6811C35.1459 16.072 34.9601 15.473 34.7365 14.8877L34.5431 14.3718L36.8202 12.3164L34.8454 8.90277L31.738 9.90629L31.3914 9.53954C30.9992 9.12139 30.5848 8.72452 30.1501 8.35063L29.7471 8.00403L30.7386 4.94105L27.3209 2.96624L25.1043 5.42468L24.6086 5.27153C24.0635 5.09815 23.5092 4.95552 22.9481 4.84433L22.4282 4.73954L21.7552 1.58791H17.8096L17.1365 4.73954L16.6166 4.84433C16.0307 4.96275 15.4521 5.11481 14.8836 5.29975L14.3879 5.46095L12.3204 3.17179L8.90277 5.15063L9.82973 8.01208L9.4267 8.35869C8.92285 8.79647 8.44512 9.26343 7.99597 9.75718L7.64937 10.136L4.94106 9.27758L2.96625 12.6912L4.98136 14.5128L4.79597 15.0247C4.52867 15.735 4.31316 16.4636 4.15113 17.205L4.04232 17.7169L1.59597 18.2408V22.1743L3.95365 22.6781L4.04635 23.2181C4.18613 24.0488 4.39233 24.8668 4.66297 25.6645L4.83224 26.1683L3.17985 27.6635L5.15063 31.0771L7.2262 30.4081L7.57683 30.8111C8.15804 31.5011 8.79714 32.1402 9.48716 32.7214L9.89018 33.072L9.2534 35.0348L12.671 37.0055L14.0856 35.4418L14.5894 35.6151C15.4555 35.912 16.3454 36.1345 17.2494 36.2801L17.7975 36.3688L18.2368 38.3879Z" fill="#1D5D61"/>
<path d="M19.994 29.4368C25.2114 29.4368 29.4409 25.2073 29.4409 19.9899C29.4409 14.7726 25.2114 10.5431 19.994 10.5431C14.7767 10.5431 10.5472 14.7726 10.5472 19.9899C10.5472 25.2073 14.7767 29.4368 19.994 29.4368Z" fill="#92D9DD"/>
<path d="M19.994 32.8746C17.4433 32.8746 14.9498 32.1183 12.829 30.7012C10.7081 29.2841 9.05512 27.2699 8.079 24.9133C7.10288 22.5567 6.84748 19.9636 7.3451 17.4619C7.84273 14.9602 9.07102 12.6622 10.8747 10.8586C12.6783 9.05491 14.9763 7.82661 17.478 7.32899C19.9797 6.83137 22.5728 7.08676 24.9294 8.06289C27.286 9.03901 29.3002 10.692 30.7173 12.8129C32.1344 14.9337 32.8908 17.4272 32.8908 19.9779C32.8908 23.3983 31.532 26.6787 29.1134 29.0973C26.6948 31.5159 23.4144 32.8746 19.994 32.8746ZM19.994 8.71746C17.7621 8.71746 15.5804 9.3793 13.7246 10.6193C11.8689 11.8592 10.4225 13.6216 9.56838 15.6836C8.71427 17.7456 8.4908 20.0146 8.92622 22.2036C9.36164 24.3926 10.4364 26.4034 12.0146 27.9815C13.5928 29.5597 15.6035 30.6345 17.7925 31.0699C19.9815 31.5053 22.2505 31.2819 24.3125 30.4278C26.3745 29.5736 28.1369 28.1273 29.3769 26.2715C30.6168 24.4158 31.2787 22.234 31.2787 20.0021C31.2787 17.0092 30.0898 14.1389 27.9735 12.0227C25.8572 9.90637 22.9869 8.71746 19.994 8.71746Z" fill="#1D5D61"/>
<path d="M19.994 32.8746C15.6212 32.8746 12.1995 27.2323 12.1995 19.9779C12.1995 12.7235 15.6212 7.08118 19.994 7.08118C24.3668 7.08118 27.7844 12.7235 27.7844 19.9779C27.7844 27.2323 24.3587 32.8746 19.994 32.8746ZM19.994 8.71745C16.6408 8.71745 13.8116 13.8802 13.8116 20.0021C13.8116 26.124 16.6327 31.2867 19.994 31.2867C23.3552 31.2867 26.1723 26.124 26.1723 20.0021C26.1723 13.8802 23.339 8.71745 19.994 8.71745Z" fill="#1D5D61"/>
<path d="M19.994 32.8748C19.7802 32.8748 19.5752 32.7898 19.424 32.6387C19.2729 32.4875 19.188 32.2825 19.188 32.0687V7.91152C19.188 7.69774 19.2729 7.49273 19.424 7.34157C19.5752 7.19041 19.7802 7.10547 19.994 7.10547C21.733 7.03012 23.4693 7.30758 25.0982 7.92111C26.7271 8.53465 28.2149 9.47158 29.4721 10.6755C30.7293 11.8793 31.7297 13.3252 32.4132 14.926C33.0967 16.5269 33.449 18.2495 33.449 19.9901C33.449 21.7308 33.0967 23.4534 32.4132 25.0542C31.7297 26.655 30.7293 28.1009 29.4721 29.3048C28.2149 30.5087 26.7271 31.4456 25.0982 32.0591C23.4693 32.6727 21.733 32.9501 19.994 32.8748ZM20.8 8.74578V31.2344C23.6179 30.9957 26.2433 29.7076 28.1567 27.6252C30.07 25.5429 31.1318 22.818 31.1318 19.9901C31.1318 17.1622 30.07 14.4373 28.1567 12.355C26.2433 10.2726 23.6179 8.98457 20.8 8.74578Z" fill="#1D5D61"/>
<path d="M31.2826 25.0562H8.71336C8.54936 25.0559 8.38934 25.0056 8.25468 24.912C8.12002 24.8184 8.01711 24.6859 7.95971 24.5322C6.84192 21.6074 6.84192 18.373 7.95971 15.4481C8.01572 15.2956 8.1165 15.1636 8.24883 15.0694C8.38116 14.9752 8.53886 14.9232 8.70127 14.9202H31.2705C31.4341 14.9201 31.5938 14.9699 31.7284 15.0627C31.863 15.1556 31.9662 15.2872 32.0242 15.4401C33.1473 18.364 33.1473 21.6003 32.0242 24.5242C31.9688 24.6774 31.8683 24.8103 31.736 24.9053C31.6036 25.0002 31.4455 25.0529 31.2826 25.0562ZM9.26954 23.4441H30.7144C31.4505 21.2017 31.4505 18.7827 30.7144 16.5403H9.26954C8.53339 18.7827 8.53339 21.2017 9.26954 23.4441Z" fill="#1D5D61"/>
</svg>
