<svg width="100" height="100" viewBox="0 0 100 100" fill="none" xmlns="http://www.w3.org/2000/svg">
<path d="M73.6841 5.93787H52.6315L63.1578 24.1705L73.6841 5.93787Z" fill="#39BAC2"/>
<path d="M47.3685 5.93787H26.3159L36.8422 24.1705L47.3685 5.93787Z" fill="#39BAC2"/>
<path d="M23.6841 7.45728L13.1578 25.6899H34.2104L23.6841 7.45728Z" fill="#39BAC2"/>
<path d="M60.5263 25.6899L50 7.45728L39.4737 25.6899H60.5263Z" fill="#39BAC2"/>
<path d="M86.8422 25.6899L76.3159 7.45728L65.7896 25.6899H86.8422Z" fill="#39BAC2"/>
<path d="M76.3159 46.9613L86.8422 28.7286H65.7896L76.3159 46.9613Z" fill="#39BAC2"/>
<path d="M34.2104 28.7286H13.1578L23.6841 46.9613L34.2104 28.7286Z" fill="#39BAC2"/>
<path d="M10.5263 30.248L0 48.4807H21.0526L10.5263 30.248Z" fill="#39BAC2"/>
<path d="M100 48.4807L89.4736 30.248L78.9473 48.4807H100Z" fill="#39BAC2"/>
<path d="M89.4736 69.7523L100 51.5197H78.9473L89.4736 69.7523Z" fill="#39BAC2"/>
<path d="M0 51.5197L10.5263 69.7523L21.0526 51.5197H0Z" fill="#39BAC2"/>
<path d="M13.1578 71.2715H34.2104L23.6841 53.0388L13.1578 71.2715Z" fill="#39BAC2"/>
<path d="M65.7896 71.2715H86.8422L76.3159 53.0388L65.7896 71.2715Z" fill="#39BAC2"/>
<path d="M76.3159 92.5431L86.8422 74.3104H65.7896L76.3159 92.5431Z" fill="#39BAC2"/>
<path d="M39.4737 74.3104L50 92.5431L60.5263 74.3104H39.4737Z" fill="#39BAC2"/>
<path d="M13.1578 74.3104L23.6841 92.5431L34.2104 74.3104H13.1578Z" fill="#39BAC2"/>
<path d="M26.3159 94.0622H47.3685L36.8422 75.8296L26.3159 94.0622Z" fill="#39BAC2"/>
<path d="M52.6315 94.0622H73.6841L63.1578 75.8296L52.6315 94.0622Z" fill="#39BAC2"/>
</svg>
