<svg width="100" height="100" viewBox="0 0 100 100" fill="none" xmlns="http://www.w3.org/2000/svg">
<path d="M43.1039 78.8658H56.8973L49.9998 66.921L43.1039 78.8658Z" fill="#39BAC2"/>
<path d="M58.62 77.8687L65.5159 65.9263H51.725L58.62 77.8687Z" fill="#39BAC2"/>
<path d="M41.3816 77.8687L48.2762 65.9263H34.4841L41.3816 77.8687Z" fill="#39BAC2"/>
<path d="M34.4841 63.9355H48.2762L41.3816 51.9894L34.4841 63.9355Z" fill="#39BAC2"/>
<path d="M51.725 63.9355H65.5159L58.62 51.9894L51.725 63.9355Z" fill="#39BAC2"/>
<path d="M67.2395 62.9384L74.1358 50.9948H60.3449L67.2395 62.9384Z" fill="#39BAC2"/>
<path d="M32.7592 62.9384L39.6539 50.9948H25.8642L32.7592 62.9384Z" fill="#39BAC2"/>
<path d="M49.9998 92.8029L56.8973 80.858H43.1039L49.9998 92.8029Z" fill="#39BAC2"/>
<path d="M25.8642 49.0032H39.6539L32.7592 37.0604L25.8642 49.0032Z" fill="#39BAC2"/>
<path d="M60.3449 49.0032H74.1358L67.2395 37.0604L60.3449 49.0032Z" fill="#39BAC2"/>
<path d="M58.62 48.0087L65.5159 36.0613H51.725L58.62 48.0087Z" fill="#39BAC2"/>
<path d="M41.3816 48.0087L48.2762 36.0613H34.4841L41.3816 48.0087Z" fill="#39BAC2"/>
<path d="M34.4841 34.0751H48.2762L41.3816 22.1277L34.4841 34.0751Z" fill="#39BAC2"/>
<path d="M51.725 34.0751H65.5159L58.62 22.1277L51.725 34.0751Z" fill="#39BAC2"/>
<path d="M49.9998 33.0763L56.8973 21.1336H43.1039L49.9998 33.0763Z" fill="#39BAC2"/>
<path d="M43.1039 19.1414H56.8973L49.9998 7.1965L43.1039 19.1414Z" fill="#39BAC2"/>
<path d="M84.4805 62.9384L91.3776 50.9948H77.5846L84.4805 62.9384Z" fill="#39BAC2"/>
<path d="M15.5196 62.9384L22.4146 50.9948H8.62242L15.5196 62.9384Z" fill="#39BAC2"/>
<path d="M8.62242 49.0032H22.4146L15.5196 37.0604L8.62242 49.0032Z" fill="#39BAC2"/>
<path d="M77.5846 49.0032H91.3776L84.4805 37.0604L77.5846 49.0032Z" fill="#39BAC2"/>
<path d="M93.1003 48.0087L100 36.0613H86.204L93.1003 48.0087Z" fill="#39BAC2"/>
<path d="M75.8619 48.0087L82.7557 36.0613H68.9648L75.8619 48.0087Z" fill="#39BAC2"/>
<path d="M24.1369 48.0087L31.037 36.0613H17.2448L24.1369 48.0087Z" fill="#39BAC2"/>
<path d="M6.90013 48.0087L13.7973 36.0613H1.52588e-05L6.90013 48.0087Z" fill="#39BAC2"/>
<path d="M17.2448 34.0752H31.037L24.1369 22.1278L17.2448 34.0752Z" fill="#39BAC2"/>
<path d="M1.52588e-05 34.0752H13.7973L6.90013 22.1278L1.52588e-05 34.0752Z" fill="#39BAC2"/>
<path d="M68.9648 34.0752H82.7557L75.8619 22.1278L68.9648 34.0752Z" fill="#39BAC2"/>
<path d="M86.204 34.0752H100L93.1003 22.1278L86.204 34.0752Z" fill="#39BAC2"/>
<path d="M84.4805 33.0763L91.3776 21.1336H77.5846L84.4805 33.0763Z" fill="#39BAC2"/>
<path d="M15.5196 33.0763L22.4146 21.1336H8.62242L15.5196 33.0763Z" fill="#39BAC2"/>
<path d="M8.62242 19.1414H22.4146L15.5196 7.19651L8.62242 19.1414Z" fill="#39BAC2"/>
<path d="M77.5846 19.1414H91.3776L84.4805 7.19651L77.5846 19.1414Z" fill="#39BAC2"/>
</svg>
