<svg width="41" height="40" viewBox="0 0 41 40" fill="none" xmlns="http://www.w3.org/2000/svg">
<path d="M34.2472 2.99729V1.22378C34.2431 1.16553 34.2274 1.10868 34.2011 1.05654C34.1748 1.00439 34.1384 0.957988 34.094 0.920046C34.0497 0.882104 33.9982 0.853365 33.9425 0.835514C33.8869 0.817663 33.8284 0.811068 33.7702 0.816079H30.3944C30.2771 0.807073 30.161 0.844917 30.0716 0.92134C29.9822 0.997764 29.9267 1.10653 29.9174 1.22378V2.99729" fill="white"/>
<path d="M35.0626 2.99717H33.4318V1.64359H30.7327V2.99717H29.1019V1.22366C29.1062 1.05839 29.143 0.895576 29.2103 0.744565C29.2776 0.593554 29.374 0.457319 29.4941 0.343678C29.6142 0.230037 29.7555 0.141226 29.91 0.0823431C30.0645 0.0234603 30.2291 -0.00433667 30.3944 0.000548282H33.7702C33.9354 -0.00433667 34.1 0.0234603 34.2545 0.0823431C34.409 0.141226 34.5503 0.230037 34.6704 0.343678C34.7905 0.457319 34.887 0.593554 34.9543 0.744565C35.0216 0.895576 35.0584 1.05839 35.0626 1.22366V2.99717Z" fill="#3C3C3C"/>
<path d="M32.0864 37.2237L29.0734 31.5973V30.6107H30.7043V31.1896L32.0864 33.7663L33.4644 31.1896V30.6107H35.0953V31.5973L32.0864 37.2237Z" fill="#3C3C3C"/>
<path d="M34.2677 7.31055H29.897V30.7699H34.2677V7.31055Z" fill="#DEC411"/>
<path d="M33.4522 8.12626V29.9548H30.7124V8.12626H33.4522ZM35.083 6.49544H29.0816V31.5856H35.083V6.49544Z" fill="#3C3C3C"/>
<path d="M35.083 2.98828H29.0816V6.48232H35.083V2.98828Z" fill="#39BAC2"/>
<path d="M6.23382 39.9997V31.5969H0V6.48633H40.1753V31.5969H15.5132L6.23382 39.9997ZM1.63082 29.9742H7.86464V36.3303L14.8853 29.9783H38.5322V8.11715H1.63082V29.9742Z" fill="#3C3C3C"/>
<path d="M25.2328 13.0475H6.51102V14.6784H25.2328V13.0475Z" fill="#3C3C3C"/>
<path d="M25.2328 17.9922H6.51102V19.623H25.2328V17.9922Z" fill="#3C3C3C"/>
<path d="M25.2328 22.9382H6.51102V24.569H25.2328V22.9382Z" fill="#3C3C3C"/>
</svg>
