<svg width="48" height="40" viewBox="0 0 48 40" fill="none" xmlns="http://www.w3.org/2000/svg">
<path d="M5.50607 39.9998C8.54699 39.9998 11.0121 37.5346 11.0121 34.4937C11.0121 31.4528 8.54699 28.9876 5.50607 28.9876C2.46515 28.9876 0 31.4528 0 34.4937C0 37.5346 2.46515 39.9998 5.50607 39.9998Z" fill="#39BAC2"/>
<path d="M10.2858 17.6712H1.79007H1.25586V25.047H1.79007H10.2858H46.5087V17.6712H10.2858Z" fill="#DEC411"/>
<path d="M47.4599 25.998H0.318604V16.7337H47.4599V25.998ZM2.20707 24.1236H45.5855V18.6081H2.19301L2.20707 24.1236Z" fill="#3C3C3C"/>
<path d="M6.52757 18.1165H4.65317V21.0219H6.52757V18.1165Z" fill="#3C3C3C"/>
<path d="M9.60161 18.1165H7.7272V19.6817H9.60161V18.1165Z" fill="#3C3C3C"/>
<path d="M12.6757 18.1165H10.8013V21.0219H12.6757V18.1165Z" fill="#3C3C3C"/>
<path d="M15.7497 18.1165H13.8753V19.6817H15.7497V18.1165Z" fill="#3C3C3C"/>
<path d="M18.8238 18.1165H16.9494V21.0219H18.8238V18.1165Z" fill="#3C3C3C"/>
<path d="M21.8978 18.1165H20.0233V19.6817H21.8978V18.1165Z" fill="#3C3C3C"/>
<path d="M24.9718 18.1165H23.0974V21.0219H24.9718V18.1165Z" fill="#3C3C3C"/>
<path d="M28.0505 18.1165H26.1761V19.6817H28.0505V18.1165Z" fill="#3C3C3C"/>
<path d="M31.1199 18.1165H29.2455V21.0219H31.1199V18.1165Z" fill="#3C3C3C"/>
<path d="M34.1985 18.1165H32.3241V19.6817H34.1985V18.1165Z" fill="#3C3C3C"/>
<path d="M37.2726 18.1165H35.3982V21.0219H37.2726V18.1165Z" fill="#3C3C3C"/>
<path d="M40.3467 18.1165H38.4723V19.6817H40.3467V18.1165Z" fill="#3C3C3C"/>
<path d="M43.4207 18.1165H41.5463V21.0219H43.4207V18.1165Z" fill="#3C3C3C"/>
<path d="M14.3111 13.88H0.431152V0H14.3111V13.88ZM2.30556 12.0056H12.4367V1.87441H2.30556V12.0056Z" fill="#3C3C3C"/>
<path d="M12.7106 0.274433L0.705719 12.2793L2.03112 13.6047L14.036 1.59984L12.7106 0.274433Z" fill="#3C3C3C"/>
<path d="M2.03112 0.275501L0.705719 1.60091L12.7106 13.6058L14.036 12.2804L2.03112 0.275501Z" fill="#3C3C3C"/>
<path d="M30.7123 13.88H16.8323V0H30.7123V13.88ZM18.7067 12.0056H28.8378V1.87441H18.7067V12.0056Z" fill="#3C3C3C"/>
<path d="M29.1143 0.271824L17.1095 12.2767L18.4349 13.6021L30.4397 1.59723L29.1143 0.271824Z" fill="#3C3C3C"/>
<path d="M18.4315 0.271595L17.1061 1.597L29.111 13.6019L30.4364 12.2765L18.4315 0.271595Z" fill="#3C3C3C"/>
<path d="M47.1179 13.88H33.2379V0H47.1179V13.88ZM35.1123 12.0056H45.2435V1.87441H35.1123V12.0056Z" fill="#3C3C3C"/>
<path d="M45.5195 0.277042L33.5146 12.2819L34.8401 13.6073L46.8449 1.60245L45.5195 0.277042Z" fill="#3C3C3C"/>
<path d="M34.8353 0.273548L33.5099 1.59895L45.5148 13.6038L46.8402 12.2784L34.8353 0.273548Z" fill="#3C3C3C"/>
<path d="M45.2904 31.4948H12.9381V33.3692H45.2904V31.4948Z" fill="#3C3C3C"/>
<path d="M37.8162 35.8105H12.9381V37.685H37.8162V35.8105Z" fill="#3C3C3C"/>
<path d="M4.33925 37.8301L1.78067 35.4637L3.05059 34.0907L4.13306 35.0888L7.46481 30.9089L8.93154 32.0757L4.33925 37.8301Z" fill="white"/>
</svg>
