<svg width="41" height="40" viewBox="0 0 41 40" fill="none" xmlns="http://www.w3.org/2000/svg">
<path d="M19.3733 14.5492C19.3733 15.5836 19.0665 16.5948 18.4918 17.4549C17.9171 18.315 17.1003 18.9854 16.1446 19.3812C15.1889 19.7771 14.1373 19.8807 13.1227 19.6789C12.1082 19.4771 11.1762 18.9789 10.4448 18.2475C9.71333 17.516 9.21521 16.5841 9.0134 15.5695C8.81159 14.555 8.91517 13.5034 9.31103 12.5477C9.70689 11.592 10.3773 10.7752 11.2373 10.2005C12.0974 9.62576 13.1086 9.31902 14.1431 9.31902C14.8299 9.31902 15.51 9.4543 16.1446 9.71714C16.7791 9.97998 17.3557 10.3652 17.8414 10.8509C18.327 11.3366 18.7123 11.9131 18.9751 12.5477C19.238 13.1822 19.3733 13.8624 19.3733 14.5492Z" fill="#DEC411"/>
<path d="M25.8027 24.4219H24.2553V25.9693H25.8027V24.4219Z" fill="#3C3C3C"/>
<path d="M22.735 25.9842H21.2263V24.4368H22.735V25.9842ZM19.6789 25.9842H18.1702V24.4368H19.6789V25.9842ZM16.6344 25.9842H15.1296V24.4368H16.6499L16.6344 25.9842ZM13.5899 25.9842H12.0851V24.4368H13.6054L13.5899 25.9842ZM10.5493 25.9842H9.04062V24.4368H10.5648L10.5493 25.9842ZM7.50484 25.9842H6V24.4368H7.52031L7.50484 25.9842Z" fill="#3C3C3C"/>
<path d="M4.47964 24.4219H2.93225V25.9693H4.47964V24.4219Z" fill="#3C3C3C"/>
<path d="M4.47964 22.8893H2.93225V21.369H4.47964V22.8893ZM4.47964 19.8487H2.93225V18.3245H4.47964V19.8487ZM4.47964 16.8042H2.93225V15.2839H4.47964V16.8042ZM4.47964 13.7636H2.93225V12.2394H4.47964V13.7636ZM4.47964 10.7191H2.93225V9.19878H4.47964V10.7191ZM4.47964 7.6746H2.93225V6.1543H4.47964V7.6746Z" fill="#3C3C3C"/>
<path d="M4.47964 3.09505H2.93225V4.64244H4.47964V3.09505Z" fill="#3C3C3C"/>
<path d="M22.735 4.64244H21.2263V3.09505H22.735V4.64244ZM19.6944 4.64244H18.1702V3.09505H19.6789L19.6944 4.64244ZM16.6499 4.64244H15.1296V3.09505H16.6499V4.64244ZM13.6054 4.64244H12.0851V3.09505H13.6054V4.64244ZM10.5648 4.64244H9.04062V3.09505H10.5648V4.64244ZM7.52031 4.64244H6V3.09505H7.52031V4.64244Z" fill="#3C3C3C"/>
<path d="M25.8027 3.09505H24.2553V4.64244H25.8027V3.09505Z" fill="#3C3C3C"/>
<path d="M25.8027 22.8893H24.2553V21.369H25.8027V22.8893ZM25.8027 19.8487H24.2553V18.3245H25.8027V19.8487ZM25.8027 16.8042H24.2553V15.2839H25.8027V16.8042ZM25.8027 13.7597H24.2553V12.2394H25.8027V13.7597ZM25.8027 10.7191H24.2553V9.19878H25.8027V10.7191ZM25.8027 7.6746H24.2553V6.1543H25.8027V7.6746Z" fill="#3C3C3C"/>
<path d="M7.62088 0.773438H0.773682V7.62063H7.62088V0.773438Z" fill="white"/>
<path d="M8.39458 8.39072H0V0H8.39458V8.39072ZM1.54739 6.84333H6.8472V1.54739H1.54739V6.84333Z" fill="#3C3C3C"/>
<path d="M27.9613 0.773438H21.1141V7.62063H27.9613V0.773438Z" fill="white"/>
<path d="M28.7349 8.39072H20.3403V0H28.7349V8.39072ZM21.8877 6.84333H27.1875V1.54739H21.8877V6.84333Z" fill="#3C3C3C"/>
<path d="M7.62088 21.4427H0.773682V28.286H7.62088V21.4427Z" fill="white"/>
<path d="M8.39458 29.0795H0V20.6849H8.39458V29.0795ZM1.54739 27.5321H6.8472V22.2323H1.54739V27.5321Z" fill="#3C3C3C"/>
<path d="M37.7331 23.7719L27.1799 20.1897L16.6228 16.6113L20.205 27.1684L23.7833 37.7216L26.3327 31.0639L33.4623 38.1974L38.2089 33.4508L31.0754 26.3173L37.7331 23.7719Z" fill="white"/>
<path d="M23.7407 39.9998L15.3887 15.377L40.0115 23.729L32.468 26.6149L39.3036 33.4504L33.4622 39.2918L26.6421 32.4563L23.7407 39.9998ZM26.0347 29.6748L33.4622 37.1023L37.114 33.4504L29.6865 26.0191L35.4544 23.8141L17.8606 17.8605L23.8297 35.4543L26.0347 29.6748Z" fill="#3C3C3C"/>
</svg>
