<svg width="483" height="931" viewBox="0 0 483 931" fill="none" xmlns="http://www.w3.org/2000/svg">
<path fill-rule="evenodd" clip-rule="evenodd" d="M142 574.158L142 0H143L143 574.158H173.582V491.532V490.532H174.582H216.683V342.582V341.582H217.683H393.315H394.315V342.582V372.303H438.146H439.146V373.303V776.589H482.554V778.589H439.146V929.845H437.146V778.589H264.398V929.845H262.398V777.589V647.672H215.376V751.636V752.636H214.376H155.973V817.96V877.363V878.363H154.973H143V931H142V878.363H1.56396H0.563965V877.363V723.953V722.953H1.56396H38.6279V575.158V574.158H39.6279H142ZM142 576.158H40.6279V722.953H115.333V605.148V604.148H116.333H142V576.158ZM142 606.148H117.333V723.953V750.636H142V606.148ZM143 750.636V606.148H173.582V646.672V647.672H174.582H213.376V750.636H154.973H143ZM142 752.636H117.333V816.96H142L142 752.636ZM143 816.96L143 752.636H153.973V816.96H143ZM142 818.96H116.333H115.333V817.96V752.636H39.6279H38.6279V751.636V724.953H2.56396V876.363H142V818.96ZM143 876.363V818.96H153.973V876.363H143ZM143 604.148V576.158H173.582V604.148H143ZM393.315 372.303V342.582H217.683V490.532H290.081V373.303V372.303H291.081H393.315ZM216.683 492.532H175.582V574.158H214.376H215.376V575.158V604.148H263.398H264.398V605.148V645.672H331.605V585.962H291.081H290.081V584.962V520.367H217.683H216.683V519.367V492.532ZM290.081 519.367H217.683V492.532H290.081V519.367ZM292.081 519.367V491.532V374.303H393.315V519.367H292.081ZM292.081 520.367V583.962H331.605V520.367H292.081ZM333.605 520.367H393.315H394.315V519.367V374.303H437.146V776.589H264.398V647.672H332.605H333.605V646.672V584.962V520.367ZM262.398 606.148V645.672H215.376V606.148H262.398ZM213.376 606.148V645.672H175.582V606.148H213.376ZM213.376 604.148H175.582V576.158H213.376V604.148ZM40.6279 750.636H115.333V724.953H40.6279V750.636ZM410.464 812.194H417.385V819.114H410.464V812.194ZM417.384 828.342H410.463V835.263H417.384V828.342ZM410.463 844.491H417.384V851.412H410.463V844.491ZM417.384 860.638H410.463V867.558H417.384V860.638ZM410.463 876.787H417.384V883.708H410.463V876.787ZM417.384 892.936H410.463V899.857H417.384V892.936ZM111.719 851.411V858.332H104.798V851.411H111.719ZM95.5702 858.331L95.5702 851.41H88.6495V858.331H95.5702ZM79.4217 851.41V858.331H72.5009V851.41H79.4217ZM63.2739 858.331V851.41H56.3532V858.331H63.2739ZM47.1246 851.41V858.331H40.2039V851.41H47.1246ZM30.9768 858.331V851.41H24.0561V858.331H30.9768ZM88.6502 694.539H95.5709V701.46H88.6502V694.539ZM198.228 512.297H191.307V519.217H198.228V512.297ZM265.128 462.697H272.049V469.618H265.128V462.697ZM374.706 280.452H367.785V287.372H374.706V280.452Z" fill="#92D9DD"/>
</svg>
