<svg width="40" height="40" viewBox="0 0 40 40" fill="none" xmlns="http://www.w3.org/2000/svg">
<g clip-path="url(#clip0)">
<path d="M31.4522 35.8202C40.1896 29.4953 42.1454 17.2849 35.8206 8.54743C29.4957 -0.190024 17.2853 -2.14581 8.54783 4.17905C-0.189614 10.5039 -2.14541 22.7143 4.17945 31.4518C10.5043 40.1892 22.7147 42.145 31.4522 35.8202Z" fill="#92D9DD"/>
<path d="M19.9998 34.7004L3.87895 20.071H19.9998H36.1245L19.9998 34.7004Z" fill="white"/>
<path d="M19.9996 35.4832C19.8056 35.4827 19.6186 35.4101 19.4751 35.2796L3.35424 20.6503C3.23742 20.5441 3.15544 20.4051 3.11903 20.2515C3.08262 20.0979 3.09349 19.9369 3.15021 19.7896C3.20693 19.6422 3.30686 19.5155 3.43689 19.426C3.56691 19.3365 3.72096 19.2884 3.87882 19.288H36.1244C36.2822 19.2884 36.4363 19.3365 36.5663 19.426C36.6963 19.5155 36.7963 19.6422 36.853 19.7896C36.9097 19.9369 36.9206 20.0979 36.8842 20.2515C36.8478 20.4051 36.7657 20.5441 36.6489 20.6503L20.5281 35.2796C20.3835 35.411 20.195 35.4836 19.9996 35.4832ZM5.90664 20.8539L19.9996 33.6433L34.0926 20.8539H5.90664Z" fill="#1D5D61"/>
<path d="M19.9996 34.7004L12.8944 20.071H19.9996H27.1087L19.9996 34.7004Z" fill="white"/>
<path d="M19.9997 35.4832C19.8525 35.4831 19.7084 35.4416 19.5837 35.3633C19.4591 35.2851 19.359 35.1733 19.295 35.0408L12.1898 20.4154C12.1312 20.2959 12.1041 20.1635 12.111 20.0306C12.1178 19.8977 12.1584 19.7688 12.2289 19.656C12.2994 19.5431 12.3976 19.4501 12.514 19.3857C12.6304 19.3214 12.7614 19.2877 12.8944 19.288H27.1088C27.2418 19.2877 27.3728 19.3214 27.4892 19.3857C27.6057 19.4501 27.7038 19.5431 27.7743 19.656C27.8448 19.7688 27.8854 19.8977 27.8923 20.0306C27.8991 20.1635 27.872 20.2959 27.8134 20.4154L20.7043 35.0447C20.6397 35.1765 20.5394 35.2875 20.4149 35.365C20.2903 35.4425 20.1464 35.4835 19.9997 35.4832ZM14.1276 20.8539L19.9997 32.9073L25.8717 20.8539H14.1276Z" fill="#1D5D61"/>
<path d="M3.87895 20.1139H19.9998H36.1245L31.6891 14.3945H8.31431L3.87895 20.1139Z" fill="white"/>
<path d="M36.1245 20.8966H3.87891C3.73216 20.8968 3.5883 20.8558 3.46374 20.7782C3.33918 20.7006 3.23892 20.5896 3.17444 20.4577C3.10995 20.3259 3.08383 20.1786 3.09903 20.0326C3.11422 19.8867 3.17013 19.7479 3.26038 19.6322L7.69577 13.9049C7.7691 13.8109 7.86294 13.7349 7.97014 13.6826C8.07733 13.6304 8.19503 13.6033 8.31428 13.6035H31.6891C31.8077 13.6039 31.9246 13.6313 32.0311 13.6835C32.1375 13.7357 32.2308 13.8114 32.3037 13.9049L36.7391 19.6243C36.8282 19.7401 36.8831 19.8785 36.8977 20.0238C36.9123 20.1692 36.8859 20.3157 36.8216 20.4468C36.7572 20.578 36.6575 20.6885 36.5336 20.7659C36.4097 20.8433 36.2666 20.8845 36.1206 20.8849L36.1245 20.8966ZM5.4761 19.3307H34.5233L31.3055 15.1811H8.69794L5.4761 19.3307Z" fill="#1D5D61"/>
<path d="M19.9996 14.3395L12.8944 20.1137H19.9996H27.1087L19.9996 14.3395Z" fill="white"/>
<path d="M27.1087 20.8971H12.8944L12.4011 19.5074L19.5064 13.7332H20.4929L27.6059 19.5074L27.1087 20.8971ZM15.0984 19.3312H24.9047L19.9996 15.3499L15.0984 19.3312Z" fill="#1D5D61"/>
<path d="M12.8358 20.1139L8.32607 14.3945H8.31431L3.87895 20.1139H12.8358Z" fill="white"/>
<path d="M12.8358 20.8973H3.87891C3.73216 20.8975 3.5883 20.8565 3.46374 20.7789C3.33918 20.7013 3.23892 20.5902 3.17444 20.4584C3.10995 20.3266 3.08383 20.1793 3.09903 20.0333C3.11422 19.8873 3.17013 19.7486 3.26038 19.6329L7.69577 13.9056C7.77331 13.8161 7.86919 13.7443 7.97692 13.6951C8.08466 13.6458 8.20171 13.6204 8.32015 13.6204C8.4386 13.6204 8.55565 13.6458 8.66338 13.6951C8.77112 13.7443 8.86702 13.8161 8.94456 13.9056L13.4504 19.6211C13.5416 19.7365 13.5984 19.8753 13.6144 20.0216C13.6304 20.1678 13.6048 20.3156 13.5407 20.4479C13.4765 20.5803 13.3764 20.692 13.2517 20.7701C13.127 20.8481 12.9829 20.8895 12.8358 20.8895V20.8973ZM5.4761 19.3314H11.2229L8.32603 15.6594L5.4761 19.3314Z" fill="#1D5D61"/>
<path d="M27.1675 20.1139L31.6773 14.3945H31.689L36.1244 20.1139H27.1675Z" fill="white"/>
<path d="M36.1244 20.8971H27.1675C27.0204 20.8972 26.8763 20.8558 26.7516 20.7777C26.6269 20.6996 26.5268 20.588 26.4627 20.4556C26.3985 20.3232 26.3729 20.1754 26.3889 20.0292C26.4049 19.8829 26.4617 19.7442 26.5529 19.6287L31.0627 13.9054C31.1399 13.816 31.2354 13.7442 31.3428 13.695C31.4502 13.6458 31.567 13.6204 31.6851 13.6204C31.8033 13.6204 31.92 13.6458 32.0274 13.695C32.1349 13.7442 32.2304 13.816 32.3076 13.9054L36.743 19.6248C36.8321 19.7406 36.887 19.879 36.9016 20.0243C36.9162 20.1697 36.8898 20.3162 36.8254 20.4473C36.7611 20.5785 36.6613 20.689 36.5375 20.7664C36.4136 20.8438 36.2705 20.885 36.1244 20.8854V20.8971ZM28.7804 19.3312H34.5233L31.6773 15.6592L28.7804 19.3312Z" fill="#1D5D61"/>
<path d="M25.0857 2.859L20.355 7.58972L21.4623 8.69697L26.193 3.96625L25.0857 2.859Z" fill="white"/>
<path d="M21.4661 2.86467L20.3589 3.97192L25.0896 8.70265L26.1969 7.5954L21.4661 2.86467Z" fill="white"/>
<path d="M15.5239 6.79097L12.5759 9.73901L13.6831 10.8463L16.6312 7.89822L15.5239 6.79097Z" fill="white"/>
<path d="M13.6831 6.79399L12.5759 7.90125L15.5239 10.8493L16.6312 9.74205L13.6831 6.79399Z" fill="white"/>
</g>
<defs>
<clipPath id="clip0">
<rect width="40" height="40" fill="white"/>
</clipPath>
</defs>
</svg>
