<svg width="62" height="40" viewBox="0 0 62 40" fill="none" xmlns="http://www.w3.org/2000/svg">
<path d="M53.9318 9.17963H11.4911V35.1694H53.9318V9.17963Z" fill="#39BAC2"/>
<path d="M58.751 40H6.67189V4.36014H58.751V40ZM9.017 37.6549H56.4059V6.70525H9.017V37.6549Z" fill="#3C3C3C"/>
<path d="M40.3418 4.48504H37.9967V2.34511H27.4203V4.48504H25.0751V0H40.3418V4.48504Z" fill="#3C3C3C"/>
<path d="M31.5301 15.9104C31.2191 15.9104 30.9208 16.034 30.7009 16.2539C30.4811 16.4738 30.3575 16.772 30.3575 17.083V18.0855C30.1725 18.005 29.973 17.9631 29.7712 17.9624H26.8398V25.9769H29.7712C29.973 25.9761 30.1725 25.9342 30.3575 25.8537V26.8563C30.3575 27.1673 30.4811 27.4655 30.7009 27.6854C30.9208 27.9053 31.2191 28.0288 31.5301 28.0288H60.7326C61.0436 28.0288 61.3418 27.9053 61.5617 27.6854C61.7816 27.4655 61.9052 27.1673 61.9052 26.8563V17.083C61.9052 16.772 61.7816 16.4738 61.5617 16.2539C61.3418 16.034 61.0436 15.9104 60.7326 15.9104H31.5301Z" fill="#DEC411"/>
<path d="M26.8106 20.7939H7.8914V23.139H26.8106V20.7939Z" fill="#3C3C3C"/>
<path d="M10.0605 22.3477L7.23466 24.6518L1.17254 23.3092V20.6299L7.23466 19.2873L10.0605 21.5914V22.3477Z" fill="white"/>
<path d="M7.53367 25.9291L0 24.2582V19.6969L7.53367 18.0319L11.2331 21.0454V22.9156L7.53367 25.9291ZM2.34511 22.3762L6.93568 23.3905L8.69451 21.9776L6.93568 20.5646L2.34511 21.5789V22.3762Z" fill="#3C3C3C"/>
<path d="M58.581 23.1389H33.6642V25.4841H58.581V23.1389Z" fill="#3C3C3C"/>
<path d="M58.581 18.4488H33.6642V20.7939H58.581V18.4488Z" fill="#3C3C3C"/>
<path d="M31.6708 15.9104H29.3257V28.0523H31.6708V15.9104Z" fill="#3C3C3C"/>
</svg>
