<svg width="25" height="40" viewBox="0 0 25 40" fill="none" xmlns="http://www.w3.org/2000/svg">
<path d="M13.8001 8.20623C14.3573 4.7885 12.0384 1.56617 8.62069 1.00894C5.20296 0.451717 1.98063 2.77061 1.4234 6.18834C0.866179 9.60607 3.18507 12.8284 6.6028 13.3856C10.0205 13.9428 13.2429 11.624 13.8001 8.20623Z" fill="#DEC411"/>
<path d="M8.32931 0.255066H6.72366V2.76389H8.32931V0.255066Z" fill="#3C3C3C"/>
<path d="M2.72232 1.97131L1.58716 3.10687L3.36147 4.88057L4.49664 3.74501L2.72232 1.97131Z" fill="#3C3C3C"/>
<path d="M2.50882 7.18359H0V8.78924H2.50882V7.18359Z" fill="#3C3C3C"/>
<path d="M3.51494 10.3303L1.74094 12.1043L2.87629 13.2397L4.6503 11.4657L3.51494 10.3303Z" fill="#3C3C3C"/>
<path d="M8.53802 12.3306H6.93237V14.8395H8.53802V12.3306Z" fill="#3C3C3C"/>
<path d="M11.9012 10.2153L10.7657 11.3504L12.5394 13.1247L13.6749 11.9896L11.9012 10.2153Z" fill="#3C3C3C"/>
<path d="M15.2577 6.97504H12.7489V8.58068H15.2577V6.97504Z" fill="#3C3C3C"/>
<path d="M12.3848 1.84666L10.6107 3.62067L11.7461 4.75603L13.5201 2.98202L12.3848 1.84666Z" fill="#3C3C3C"/>
<path d="M18.1518 33.2042V31.6347C18.732 31.2031 19.2033 30.6419 19.528 29.9958C19.8528 29.3498 20.0221 28.6367 20.0224 27.9136V19.8332L19.9341 18.051C19.9341 17.5928 19.7524 17.1533 19.4288 16.829C19.1052 16.5047 18.6662 16.3219 18.208 16.3209C17.2527 16.3209 16.478 16.6621 16.478 17.6174V17.1839C16.478 16.7251 16.2957 16.285 15.9712 15.9605C15.6468 15.6361 15.2067 15.4538 14.7479 15.4538C14.289 15.4538 13.849 15.6361 13.5245 15.9605C13.2001 16.285 13.0178 16.7251 13.0178 17.1839V16.3209C13.0291 16.0869 12.9927 15.8531 12.911 15.6337C12.8292 15.4142 12.7037 15.2136 12.5422 15.044C12.3806 14.8745 12.1863 14.7395 11.971 14.6473C11.7557 14.555 11.5239 14.5075 11.2897 14.5075C11.0555 14.5075 10.8237 14.555 10.6084 14.6473C10.3932 14.7395 10.1988 14.8745 10.0372 15.044C9.87567 15.2136 9.7502 15.4142 9.66844 15.6337C9.58669 15.8531 9.55034 16.0869 9.56162 16.3209V17.208C9.56162 16.8066 9.56162 7.32925 9.56162 7.32925C9.56162 6.85443 9.37301 6.39905 9.03727 6.06331C8.70152 5.72756 8.24616 5.53894 7.77134 5.53894C7.29652 5.53894 6.84116 5.72756 6.50541 6.06331C6.16967 6.39905 5.98104 6.85443 5.98104 7.32925V24.8107L5.94492 23.9597V20.3832C5.94492 20.0363 5.87659 19.6928 5.74385 19.3724C5.61111 19.0519 5.41657 18.7607 5.1713 18.5155C4.92604 18.2702 4.63486 18.0757 4.31441 17.9429C3.99395 17.8102 3.65048 17.7419 3.30363 17.7419H2.42453C2.38439 17.7419 2.46066 17.7419 2.42453 17.7419V21.0495V25.4369L7.43013 31.3899C8.08671 31.8123 8.79154 32.1546 9.52953 32.4095V33.2042" fill="white"/>
<path d="M18.9546 33.2038H17.349V31.2289L17.6701 30.988C18.1517 30.6332 18.5429 30.1699 18.8121 29.6357C19.0812 29.1015 19.2208 28.5114 19.2195 27.9132V19.8328L19.1353 18.0867C19.1385 17.9623 19.1169 17.8386 19.0719 17.7226C19.0269 17.6067 18.9593 17.5008 18.873 17.4111C18.7868 17.3215 18.6835 17.2499 18.5694 17.2005C18.4552 17.1511 18.3324 17.1248 18.208 17.1233C17.2807 17.1233 17.2807 17.4524 17.2807 17.617H15.6751V17.1835C15.6751 16.9376 15.5774 16.7017 15.4035 16.5278C15.2296 16.3539 14.9938 16.2563 14.7478 16.2563C14.5019 16.2563 14.2661 16.3539 14.0922 16.5278C13.9183 16.7017 13.8206 16.9376 13.8206 17.1835H12.2149V16.3205C12.2233 16.1938 12.2055 16.0668 12.1628 15.9473C12.1201 15.8278 12.0533 15.7184 11.9665 15.6257C11.8798 15.5331 11.775 15.4593 11.6586 15.4088C11.5421 15.3583 11.4166 15.3322 11.2897 15.3322C11.1628 15.3322 11.0372 15.3583 10.9208 15.4088C10.8043 15.4593 10.6995 15.5331 10.6128 15.6257C10.5261 15.7184 10.4592 15.8278 10.4165 15.9473C10.3738 16.0668 10.3561 16.1938 10.3644 16.3205V17.2076H8.75876C8.75876 16.8062 8.75876 7.33285 8.75876 7.33285C8.75876 7.07096 8.65472 6.8198 8.46953 6.63461C8.28435 6.44942 8.03319 6.34538 7.7713 6.34538C7.50941 6.34538 7.25823 6.44942 7.07304 6.63461C6.88786 6.8198 6.78382 7.07096 6.78382 7.33285V24.8143L5.17817 24.8465L5.14206 23.9955V20.3828C5.141 19.8955 4.94694 19.4285 4.60239 19.0839C4.25784 18.7394 3.79085 18.5453 3.30359 18.5443H3.22732V20.9969L3.29957 21.6151L3.22732 21.6392V25.1515L7.96397 30.7713C8.51211 31.1249 9.10114 31.4106 9.71814 31.6223L10.3323 31.7708V33.2038H8.72666V32.9951C8.12829 32.7371 7.55113 32.4325 7.00057 32.0839L6.89623 32.0157L1.6016 25.7376V21.1133L1.55743 20.4911H1.6016V18.4841H1.55344L1.6016 17.5568V17.039H1.62971V16.9788H3.29957C3.96706 16.9797 4.61985 17.1749 5.17817 17.5408V7.32885C5.17817 6.64111 5.45137 5.98153 5.93768 5.49522C6.42398 5.00892 7.08356 4.73572 7.7713 4.73572C8.45904 4.73572 9.11859 5.00892 9.6049 5.49522C10.0912 5.98153 10.3644 6.64111 10.3644 7.32885C10.3644 7.32885 10.3644 11.082 10.3644 13.9642C10.6611 13.8479 10.977 13.788 11.2957 13.7876C11.7298 13.786 12.1571 13.896 12.5367 14.1068C12.9162 14.3176 13.2352 14.6224 13.4633 14.9918C14.0197 14.6625 14.681 14.5585 15.3116 14.7011C15.9423 14.8436 16.4945 15.2219 16.8553 15.7585C17.2856 15.5777 17.7494 15.4901 18.216 15.5016C18.8871 15.5027 19.5303 15.77 20.0045 16.2449C20.4786 16.7198 20.7449 17.3634 20.7449 18.0345L20.8332 19.7766V27.9052C20.8336 28.6827 20.666 29.4512 20.3417 30.1579C20.0175 30.8646 19.5443 31.4928 18.9546 31.9996V33.2038Z" fill="#3C3C3C"/>
<path d="M24.181 40V34.5569H6.5791V40" fill="#39BAC2"/>
<path d="M22.8363 35.9134H21.2307V37.6916H22.8363V35.9134Z" fill="#3C3C3C"/>
</svg>
