<svg width="100" height="100" viewBox="0 0 100 100" fill="none" xmlns="http://www.w3.org/2000/svg">
<g clip-path="url(#clip0)">
<path d="M41.6665 76.4634H58.3336L50.0003 62.0265L41.6665 76.4634Z" fill="#39BAC2"/>
<path d="M60.4174 75.2606L68.7507 60.8242H52.0842L60.4174 75.2606Z" fill="#39BAC2"/>
<path d="M31.2492 60.8242L39.5825 75.2606L47.9163 60.8242H31.2492Z" fill="#39BAC2"/>
<path d="M47.9163 58.4189L39.5825 43.985L31.2492 58.4189H47.9163Z" fill="#39BAC2"/>
<path d="M68.7507 58.4189L60.4174 43.985L52.0842 58.4189H68.7507Z" fill="#39BAC2"/>
<path d="M79.168 42.7836H62.503L70.8347 57.2159L79.168 42.7836Z" fill="#39BAC2"/>
<path d="M20.8319 42.7836L29.1652 57.2159L37.496 42.7836H20.8319Z" fill="#39BAC2"/>
<path d="M50.0003 93.3049L58.3336 78.8685H41.6665L50.0003 93.3049Z" fill="#39BAC2"/>
<path d="M29.1652 25.9422L20.8319 40.377H37.496L29.1652 25.9422Z" fill="#39BAC2"/>
<path d="M70.8347 25.9422L62.503 40.377H79.168L70.8347 25.9422Z" fill="#39BAC2"/>
<path d="M89.5858 24.7417H72.9208L81.2525 39.1766L89.5858 24.7417Z" fill="#39BAC2"/>
<path d="M10.4142 24.7417L18.748 39.1766L27.0813 24.7417H10.4142Z" fill="#39BAC2"/>
<path d="M27.0813 22.3317L18.748 7.89988L10.4142 22.3317H27.0813Z" fill="#39BAC2"/>
<path d="M47.9163 22.3317L39.5825 7.89988L31.2492 22.3317H47.9163Z" fill="#39BAC2"/>
<path d="M81.2525 7.89988L72.9208 22.3317H89.5858L81.2525 7.89988Z" fill="#39BAC2"/>
<path d="M100 6.69501H83.338L91.6713 21.1329L100 6.69501Z" fill="#39BAC2"/>
<path d="M58.3336 6.69501H41.6665L50.0003 21.1329L58.3336 6.69501Z" fill="#39BAC2"/>
<path d="M37.496 6.69501H20.8319L29.1652 21.1329L37.496 6.69501Z" fill="#39BAC2"/>
<path d="M8.33017 21.1329L16.6604 6.69501H-6.86646e-05L8.33017 21.1329Z" fill="#39BAC2"/>
</g>
<defs>
<clipPath id="clip0">
<rect x="100" y="100" width="100" height="100" transform="rotate(-180 100 100)" fill="white"/>
</clipPath>
</defs>
</svg>
