<svg width="40" height="40" viewBox="0 0 40 40" fill="none" xmlns="http://www.w3.org/2000/svg">
<path d="M27.9833 15.7577V11.9349L25.7117 11.4479C25.603 10.9776 25.4664 10.5143 25.3024 10.0604L27.0009 8.52553L25.0896 5.21028L22.732 5.97156C22.4289 5.6521 22.1092 5.34881 21.7743 5.06293L22.5192 2.75454L19.208 0.843139L17.5259 2.70541C17.1166 2.57853 16.7073 2.46803 16.2693 2.38208L15.7577 0H11.9308L11.4192 2.38208C10.9696 2.47434 10.5255 2.59185 10.089 2.73406L8.52145 0.994575L5.21027 2.91006L5.90607 5.06703C5.51693 5.40097 5.14792 5.75767 4.80098 6.13527L2.75452 5.47632L0.843139 8.78749L2.3575 10.1545C2.1551 10.7029 1.99235 11.2651 1.87046 11.8367L0 12.246V16.077L1.7845 16.4576C1.89147 17.097 2.05024 17.7267 2.25927 18.3404L0.994575 19.4864L2.90596 22.7975L4.49401 22.2859C4.94064 22.8144 5.43079 23.3045 5.95928 23.7512L5.47222 25.2533L8.78748 27.1647L9.86801 25.9695C10.5341 26.1979 11.2189 26.3677 11.9145 26.4771L12.2419 28.0078H16.0647L16.4208 26.3707C17.0797 26.2289 17.7258 26.0331 18.3526 25.7853L19.4741 27.0132L22.7893 25.1018L22.2122 23.3214C22.6643 22.9001 23.083 22.4444 23.4647 21.9585L25.241 22.5315L27.1565 19.2203L25.5971 17.8042C25.7514 17.2765 25.8704 16.7391 25.9532 16.1957L27.9833 15.7577ZM13.9855 21.0294C12.5948 21.0294 11.2353 20.617 10.0789 19.8444C8.92258 19.0717 8.02131 17.9735 7.4891 16.6887C6.9569 15.4038 6.81764 13.99 7.08896 12.626C7.36027 11.262 8.02999 10.009 9.01338 9.02566C9.99677 8.04227 11.2497 7.37256 12.6137 7.10125C13.9777 6.82993 15.3915 6.96919 16.6764 7.50139C17.9612 8.0336 19.0594 8.93486 19.8321 10.0912C20.6047 11.2475 21.0171 12.607 21.0171 13.9978C21.0171 15.8627 20.2763 17.6512 18.9576 18.9699C17.6389 20.2886 15.8504 21.0294 13.9855 21.0294Z" fill="#DEC411"/>
<path d="M38.5798 25.6459C38.5798 28.323 37.786 30.9399 36.2988 33.1657C34.8115 35.3916 32.6976 37.1264 30.2243 38.1509C27.7511 39.1753 25.0296 39.4434 22.404 38.9211C19.7784 38.3989 17.3667 37.1098 15.4737 35.2168C13.5808 33.3239 12.2917 30.9121 11.7694 28.2866C11.2471 25.661 11.5152 22.9395 12.5396 20.4662C13.5641 17.993 15.2989 15.8791 17.5248 14.3918C19.7507 12.9045 22.3676 12.1107 25.0446 12.1107C28.634 12.1118 32.0761 13.5381 34.6143 16.0763C37.1524 18.6144 38.5788 22.0565 38.5798 25.6459Z" fill="white"/>
<path d="M25.0446 40C22.2057 40 19.4305 39.1582 17.07 37.5809C14.7096 36.0037 12.8698 33.762 11.7834 31.1392C10.697 28.5163 10.4127 25.6303 10.9666 22.8459C11.5204 20.0615 12.8875 17.5039 14.8949 15.4965C16.9023 13.4891 19.4599 12.122 22.2443 11.5681C25.0287 11.0143 27.9148 11.2985 30.5376 12.3849C33.1604 13.4714 35.4022 15.3111 36.9794 17.6716C38.5566 20.0321 39.3985 22.8072 39.3985 25.6462C39.3941 29.4517 37.8805 33.1002 35.1895 35.7911C32.4986 38.482 28.8502 39.9957 25.0446 40ZM25.0446 12.9295C22.5295 12.9295 20.0708 13.6753 17.9796 15.0726C15.8884 16.47 14.2584 18.456 13.2959 20.7797C12.3334 23.1034 12.0816 25.6603 12.5723 28.1271C13.063 30.5939 14.2741 32.8598 16.0526 34.6382C17.831 36.4167 20.0969 37.6278 22.5637 38.1185C25.0305 38.6092 27.5874 38.3574 29.9111 37.3949C32.2347 36.4324 34.2208 34.8024 35.6182 32.7112C37.0155 30.6199 37.7613 28.1613 37.7613 25.6462C37.758 22.2745 36.4172 19.0418 34.0331 16.6577C31.6489 14.2736 28.4163 12.9327 25.0446 12.9295Z" fill="#3C3C3C"/>
<path d="M25.0446 14.849H24.8972V25.5888H35.854C35.8356 22.734 34.6886 20.0024 32.6635 17.9903C30.6383 15.9782 27.8994 14.8489 25.0446 14.849Z" fill="#39BAC2"/>
<path d="M27.7663 8.70942C27.7663 8.86465 27.7047 9.01352 27.5949 9.12329C27.4852 9.23305 27.3363 9.29471 27.1811 9.29471H22.9081C22.7528 9.29471 22.604 9.23305 22.4942 9.12329C22.3844 9.01352 22.3228 8.86465 22.3228 8.70942V5.93443C22.3222 5.85722 22.337 5.78067 22.3661 5.70918C22.3953 5.6377 22.4383 5.5727 22.4927 5.51792C22.5471 5.46313 22.6118 5.41966 22.6831 5.38999C22.7544 5.36032 22.8308 5.34505 22.9081 5.34505H27.1811C27.2583 5.34505 27.3347 5.36032 27.406 5.38999C27.4773 5.41966 27.542 5.46313 27.5964 5.51792C27.6508 5.5727 27.6938 5.6377 27.723 5.70918C27.7521 5.78067 27.7669 5.85722 27.7663 5.93443V8.70942Z" fill="white"/>
<path d="M27.1811 10.1181H22.9081C22.7234 10.1181 22.5405 10.0816 22.3699 10.0108C22.1993 9.94001 22.0444 9.83624 21.9139 9.70545C21.7835 9.57465 21.6802 9.4194 21.6099 9.24861C21.5396 9.07781 21.5037 8.89481 21.5042 8.71011V5.93921C21.5042 5.56651 21.652 5.209 21.9151 4.94508C22.1783 4.68115 22.5354 4.53233 22.9081 4.53125H27.1811C27.3661 4.53125 27.5493 4.56782 27.7202 4.63888C27.8911 4.70994 28.0462 4.8141 28.1767 4.94533C28.3071 5.07656 28.4104 5.23228 28.4804 5.40355C28.5505 5.57483 28.586 5.75825 28.5849 5.9433V8.71011C28.5849 9.08282 28.4372 9.44032 28.174 9.70425C27.9108 9.96818 27.5538 10.117 27.1811 10.1181ZM23.1414 8.48091H26.9478V6.16842H23.1414V8.48091Z" fill="#3C3C3C"/>
<path d="M15.4139 13.7442L14.4439 12.3117C14.4169 12.272 14.398 12.2273 14.3883 12.1803C14.3786 12.1332 14.3783 12.0847 14.3874 12.0375C14.3966 11.9903 14.4149 11.9454 14.4415 11.9054C14.468 11.8653 14.5022 11.8309 14.5422 11.8042L16.74 10.3103C16.8206 10.2567 16.919 10.237 17.0139 10.2554C17.1089 10.2738 17.1928 10.3288 17.2476 10.4085L18.2176 11.8369" fill="white"/>
<path d="M14.7386 14.2028L13.7686 12.7743C13.5943 12.5151 13.5297 12.1975 13.5887 11.8908C13.6478 11.5841 13.8257 11.3132 14.0838 11.1372L16.2817 9.64327C16.5404 9.4686 16.8576 9.40328 17.1643 9.46154C17.471 9.51981 17.7422 9.69695 17.9188 9.95433L18.8929 11.3869L17.5382 12.3077L16.8219 11.2518L15.3648 12.23L16.0811 13.2819L14.7386 14.2028Z" fill="#3C3C3C"/>
<path d="M34.6752 13.7442L35.6452 12.3117C35.6723 12.272 35.6912 12.2273 35.7009 12.1803C35.7106 12.1332 35.7109 12.0847 35.7017 12.0375C35.6926 11.9903 35.6742 11.9454 35.6477 11.9054C35.6211 11.8653 35.5869 11.8309 35.547 11.8042L33.3491 10.3103C33.2686 10.2567 33.1702 10.237 33.0752 10.2554C32.9803 10.2738 32.8964 10.3288 32.8416 10.4085L31.8716 11.8369" fill="white"/>
<path d="M35.3505 14.2028L33.9957 13.2819L34.712 12.23L33.2631 11.2436L32.555 12.2996L31.2003 11.3787L32.1457 9.93799C32.3224 9.68082 32.5933 9.50356 32.8997 9.44457C33.2061 9.38559 33.5234 9.44964 33.7829 9.62284L35.9849 11.1168C36.2414 11.2941 36.4178 11.5652 36.4761 11.8716C36.5343 12.1779 36.4696 12.4949 36.296 12.7539L35.3505 14.2028Z" fill="#3C3C3C"/>
<path d="M32.1089 25.6464C32.1089 27.0436 31.6946 28.4094 30.9183 29.5711C30.1421 30.7329 29.0388 31.6384 27.7479 32.173C26.4571 32.7077 25.0367 32.8476 23.6663 32.575C22.296 32.3025 21.0372 31.6296 20.0492 30.6417C19.0613 29.6537 18.3885 28.3949 18.1159 27.0246C17.8433 25.6542 17.9832 24.2338 18.5179 22.943C19.0526 21.6521 19.958 20.5488 21.1198 19.7726C22.2815 18.9963 23.6473 18.582 25.0445 18.582C25.9724 18.5815 26.8912 18.7639 27.7486 19.1187C28.6059 19.4735 29.3849 19.9939 30.041 20.6499C30.6971 21.306 31.2174 22.085 31.5722 22.9423C31.9271 23.7997 32.1094 24.7185 32.1089 25.6464Z" fill="white"/>
<path d="M25.7649 15.5697H24.1277V17.2641H25.7649V15.5697Z" fill="#3C3C3C"/>
<path d="M20.6312 16.5662L19.2134 17.3848L20.0606 18.8522L21.4785 18.0336L20.6312 16.5662Z" fill="#3C3C3C"/>
<path d="M16.693 20.0085L15.8735 21.4258L17.3403 22.274L18.1599 20.8568L16.693 20.0085Z" fill="#3C3C3C"/>
<path d="M16.6623 24.9219H14.9678V26.559H16.6623V24.9219Z" fill="#3C3C3C"/>
<path d="M17.4216 29.2231L15.9542 30.0703L16.7728 31.4881L18.2402 30.6409L17.4216 29.2231Z" fill="#3C3C3C"/>
<path d="M21.0386 31.1202L20.1914 32.5944L21.6157 33.413L22.4629 31.9388L21.0386 31.1202Z" fill="#3C3C3C"/>
<path d="M25.9572 34.0241H24.3201V35.7186H25.9572V34.0241Z" fill="#3C3C3C"/>
<path d="M30.0299 32.4298L28.6115 33.2474L29.4577 34.7154L30.8761 33.8978L30.0299 32.4298Z" fill="#3C3C3C"/>
<path d="M32.756 29.0355L31.9359 30.4525L33.4025 31.3012L34.2225 29.8843L32.756 29.0355Z" fill="#3C3C3C"/>
<path d="M35.1173 24.7292H33.4228V26.3663H35.1173V24.7292Z" fill="#3C3C3C"/>
<path d="M33.3134 19.8106L31.8451 20.6562L32.6622 22.0749L34.1305 21.2292L33.3134 19.8106Z" fill="#3C3C3C"/>
<path d="M29.2815 16.4399L28.4336 17.9069L29.851 18.7262L30.6989 17.2592L29.2815 16.4399Z" fill="#3C3C3C"/>
<path d="M29.8415 19.4511L25.2204 24.1602L26.3889 25.3068L31.01 20.5978L29.8415 19.4511Z" fill="#3C3C3C"/>
<path d="M26.342 25.634C26.342 25.3774 26.2659 25.1266 26.1234 24.9132C25.9808 24.6999 25.7782 24.5336 25.5411 24.4354C25.304 24.3372 25.0431 24.3115 24.7914 24.3615C24.5398 24.4116 24.3086 24.5352 24.1271 24.7166C23.9457 24.8981 23.8221 25.1292 23.772 25.3809C23.722 25.6326 23.7477 25.8935 23.8459 26.1306C23.9441 26.3676 24.1104 26.5703 24.3237 26.7128C24.5371 26.8554 24.788 26.9315 25.0446 26.9315C25.3887 26.9315 25.7187 26.7948 25.962 26.5515C26.2053 26.3082 26.342 25.9781 26.342 25.634Z" fill="white"/>
<path d="M25.0446 27.7497C24.626 27.7497 24.2169 27.6255 23.8689 27.393C23.521 27.1605 23.2497 26.83 23.0896 26.4434C22.9294 26.0567 22.8875 25.6313 22.9692 25.2208C23.0508 24.8103 23.2523 24.4333 23.5483 24.1374C23.8442 23.8414 24.2212 23.6399 24.6317 23.5582C25.0422 23.4766 25.4677 23.5185 25.8543 23.6786C26.241 23.8388 26.5714 24.11 26.804 24.458C27.0365 24.806 27.1606 25.2151 27.1606 25.6336C27.1595 26.1945 26.9362 26.7321 26.5396 27.1287C26.143 27.5253 25.6054 27.7486 25.0446 27.7497ZM25.0446 25.1547C24.919 25.1558 24.7988 25.2062 24.71 25.295C24.6212 25.3838 24.5708 25.5039 24.5698 25.6295C24.5698 25.7569 24.6201 25.8791 24.7098 25.9696C24.7995 26.0601 24.9212 26.1114 25.0486 26.1125C25.1756 26.1125 25.2974 26.062 25.3872 25.9722C25.477 25.8824 25.5275 25.7606 25.5275 25.6336C25.5275 25.5066 25.477 25.3848 25.3872 25.295C25.2974 25.2052 25.1756 25.1547 25.0486 25.1547H25.0446Z" fill="#3C3C3C"/>
<path d="M25.8631 9.22527H24.226V11.2676H25.8631V9.22527Z" fill="#3C3C3C"/>
</svg>
